<svg xmlns="http://www.w3.org/2000/svg" viewBox="0 0 160.41 189.08"><defs><style>.cls-1{fill:silver;}.cls-2{fill:#616161;}.cls-3{fill:#7a7a7a;}.cls-4{fill:#f9ecb6;}.cls-5{fill:#9e9e9e;}.cls-6{fill:#333334;}.cls-7{fill:#828283;}.cls-8{fill:#a7a7a7;}.cls-9{fill:#8b8b8b;}.cls-10{fill:#6d6d6f;}.cls-11{fill:#545454;}.cls-12{fill:#0e0e0e;}.cls-13{fill:#5d5d5d;}.cls-14{fill:#f6d968;}.cls-15{fill:#ebe5cf;}.cls-16{fill:#efcb40;}.cls-17{fill:#1f1f20;}.cls-18{fill:#826e18;}.cls-19{fill:#f2ca2d;}.cls-20{fill:#28220a;}.cls-21{fill:#98821c;}.cls-22{fill:#7d6a17;}.cls-23{fill:#cecece;}.cls-24{fill:#ecc837;}.cls-25{fill:#c0a223;}.cls-26{fill:#181405;}.cls-27{fill:#ac9220;}</style></defs><g id="Layer_2" data-name="Layer 2"><g id="Layer_1-2" data-name="Layer 1"><path class="cls-1" d="M14.37,178.89l-.9-.43L12,177.74c-5.25-.9-6-4.23-6-9.08.26-24.18.08-48.37.21-72.55,0-1.9,1.22-3.79,1.87-5.68L9.56,89a1.09,1.09,0,0,0,.28-.36c.53-.65,1.06-1.31,1.6-2h0l1.17-1.81a4.11,4.11,0,0,0,.21-.42l1-1.32a2.48,2.48,0,0,0,.26-.4q3.42-5.52,6.85-11l.4-.93.76-1.49c.15-.3.3-.6.44-.9s.71-.76.77-1.19C24,62.77,25,58.37,25.08,54c.21-14.53.05-29,.13-43.58,0-1.35.76-2.7,1.17-4.06h12L39.6,14.9h0l-1.82.64-6.5,0-1.9,1.05,1.84,1.18,7.15.17,1.14,7.08-2-5.4c-1.67,0-3.84.09-6,0-1.87-.09-3.56-.47-3.41-3.05.14-2.41,1.74-2.29,3.37-2.28h3.29c3.65,0,4.22-.58,3.5-4.15a3,3,0,0,0-2-1.9c-2.67-.23-5.37-.07-8.06-.1-2.28,0-1.83,1.65-1.83,3,0,13.56-.31,27.12.07,40.66C26.81,64.36,22.3,75,14.81,84.61,13.12,86.79,11.13,88.76,9.6,91a9.55,9.55,0,0,0-1.76,4.85c-.11,25.11-.06,50.23-.11,75.35,0,2,.45,3.35,2.6,4,3.63,1.13,7.2,2.48,10.76,3.82.48.18.78.81,1.17,1.23Z"/><path class="cls-2" d="M2.3,88.9c-.38,6.77-1,13.54-1.08,20.32-.14,21.74,0,43.47-.12,65.21a5.19,5.19,0,0,0,3.55,5.46c2.92,1.24,5.76,2.72,8.77,3.69,7.49,2.4,15.05,4,23.09,3.24A49.79,49.79,0,0,0,52,183.21a9.69,9.69,0,0,1,2.51-.34l-3.29,2-.94.44-1.45.81-1,.34-1.73.57-4.21.68-6.82.8-5.71-.07-6.09-1-1.69-.19-10.13-3.11-.92-.47-6.26-2.52L1.5,179.76.31,178.59C.21,177.3,0,176,0,174.73q0-40,0-80.1c0-1.38.21-2.77.32-4.15l1-1.42Z"/><path class="cls-3" d="M50.91,134.57l-10.26-1.93c-.76-.15-1.7-.68-2.22-.41-3.5,1.83-7.32,2-11.07,2.12-2.09.08-4.22-.77-6.33-1.2,0-.16,0-.31,0-.47l3.65-.54,8.32-.6c1.59,2.48,2.56.2,3.74-.49l2.22-.23.52-.49.09-2.4h0l1.21.26,1.17,1.59,1.8.65,1.29.3h5.25l1.8-.69a.8.8,0,0,1,.5.13l.26.71L48.11,133l4.57.46,0,.82Z"/><path class="cls-4" d="M119.2,168.73c0,.09,0,.25-.11.27-3.24,1.07-6.44,2.82-9.74,3-7.13.47-14.31.22-21.47.08-1.34,0-2.68-.87-4-1.37-.72-.27-1.4-.63-2.12-.91-2.64-1-5.3-2-7.94-3.05-.11,0-.12-.36-.18-.55l.21-.21a24.74,24.74,0,0,1,3.44.87c3.11,1.25,6.17,2.64,9.27,3.92a5,5,0,0,0,1.77.17c7.07,0,14.15,0,21.22,0a7.5,7.5,0,0,0,2.45-1l0,0,7-1.39Z"/><path class="cls-5" d="M46.66,146.88c-2.26-2.52-4.62-2.94-7.28-.71-.4.33-1.34,0-2,0a4.51,4.51,0,0,1,.14-1.82,28.44,28.44,0,0,1,2-2.95c2.52-3.62,4-3.69,6.31,0a28.36,28.36,0,0,1,2,5Z"/><path class="cls-6" d="M149.12,131.19a15.32,15.32,0,0,1,1.78-.11c4.71.19,5.17-.45,3.65-5.12l-1-1.71-.52-1.47.27-.88L155,122l1,.11a.75.75,0,0,1,.19.54c.33.82.66,1.64,1,2.45.14.51.28,1,.41,1.51l1.32,5.85-2.93,2-2.73.12-2.31-.17-.13-.11-.16,0-1.94-1.19v0a.4.4,0,0,0,.18-.45C148.94,132.14,149,131.66,149.12,131.19Z"/><path class="cls-7" d="M49.14,98l1.26.08c-.84,1.68-1.75,3.32-2.49,5-1.24,2.86-2.38,5.76-3.55,8.65h-.58l3.28-11.56-12.91-2.5c.83-.28,1.68-.51,2.48-.86a12.36,12.36,0,0,0,1.68-1l.68-.4,1.78.22,3,1,1.16.24,3,1.16Z"/><path class="cls-7" d="M22.26,129.17a35.05,35.05,0,0,1,6.11-2.1,19,19,0,0,1,6.2.29c2.21.4,3.1-.47,3.42-2.21l-11-5.57,12.51,4.21.09,4.15h0l-3.83.79c-1.48.41-3.5-2.32-4.52.77l-2.91.06Z"/><path class="cls-8" d="M44.24,1.81c-4.31-.14-8.62-.37-12.93-.4-3.44,0-6.87.18-10.31.28L19.08,2.92C18.76.78,20.2.09,21.83.07q10.61-.15,21.22,0c.64,0,1.28.86,1.92,1.31l.08.19-.12.17.07,0Z"/><path class="cls-9" d="M26.38,145.91l-.59-.58L21.33,141l.15-1,.73-.71c2.54-.56,3.05,1.67,4.17,3l.72,1.07,1.18-.9.1-.12,1-1.34,3.48-2.19v7l-1,0h0L31,143.67Z"/><path class="cls-10" d="M39.45,123.79l-12.51-4.21c-3.93-1.82-6.83-4.53-7.64-9,.2-.24.41-.47.62-.71.48,1,.95,1.91,1.43,2.87,1.54,1.69,3.07,3.41,4.67,5a8.76,8.76,0,0,0,1.28-.89l.12.17-.15.15.15-.19,1.95.77h0l2.45,1.72,1.2.4,5.4,2,1.17.42Z"/><path class="cls-4" d="M73.64,166.24a37,37,0,0,1-13-10.48c-1.9-2.32-3-5.31-4.43-8,0-.27,0-.54.07-.81h.27l.27.07L58,148.4l1.19,1.21,3,5.32,0,0q3.93,3.8,7.88,7.58c1.23,1.19,2.5,2.34,3.75,3.5Z"/><path class="cls-11" d="M18,66.33c-2,3.82-3.66,7.85-6,11.42-2.54,3.86-5.71,7.3-8.63,10.9-.19.23-.71.18-1.07.26.16-.65.31-1.31.47-2l1-1.34C4.43,85,5,84.43,5.62,83.85c.39-.42.79-.83,1.19-1.24.18-.41.37-.81.55-1.22L11,76.71l0-.06L17.4,66.31Z"/><path class="cls-12" d="M21.35,112.73c-.48-1-1-1.92-1.43-2.87l-.65-.67q.68-3.43,1.33-6.86l5.2-3.7c0,.51.16,1.28-.11,1.51-4.05,3.39-3.72,7.75-2.83,12.25Z"/><path class="cls-10" d="M22.86,112.39c-.89-4.5-1.22-8.86,2.83-12.25.27-.23.08-1,.11-1.51l.06-1.46,1.06-.73,1.14,0L27.67,100c-2.87,2.71-4.51,5.95-3.84,10a33.56,33.56,0,0,0,1.49,4.69Z"/><path class="cls-1" d="M156.14,145.37a8.57,8.57,0,0,1-2.18,1,6.1,6.1,0,0,1-2.41-.26c0-2.41-.37-5,.49-7.15.67-1.66,5-.89,6.65.85l-4.3-.51c-.76.42-2.08.72-2.19,1.27a16.54,16.54,0,0,0,.08,4.09h1.19l.36-3.5h1.69C155.76,142.82,156,144.09,156.14,145.37Z"/><path class="cls-9" d="M56.85,147l-.27-.07h-.27l-1.23,0-1.53,0c-2-3-2-5.77.07-8.17L55,139l0,1.43c.11,1.82-1,4.24,2.27,4.47l.57,1.42a1.75,1.75,0,0,0,0,.56Z"/><path class="cls-1" d="M17.4,66.31,11.07,76.65c.16-.92,0-2.09.53-2.74,3.55-4.46,5.61-9.37,5.4-15.16,0-.6.79-1.22,1.21-1.83Z"/><path class="cls-13" d="M14.37,178.89l7.89,1.41,1.76.21,5.49,1,4.57.08,1.38.48c-1,.29-2,1-2.91.82-5.85-.92-11.68-2-17.5-3.11C14.78,179.72,14.6,179.19,14.37,178.89Z"/><path class="cls-14" d="M122,167.25l-1.65.2-1.23,0c.19-.44.26-1,.59-1.28q6.27-4.4,12.63-8.7a3,3,0,0,1,1.15-.17c-2,1.7-3.94,3.38-5.88,5.09-.49.43-.91.94-1.36,1.41l0,0Z"/><path class="cls-4" d="M126.21,163.75c.45-.47.87-1,1.36-1.41,1.94-1.71,3.91-3.39,5.88-5.09h0l1.17-1.21h0l2.83-3.74.21.2a5.48,5.48,0,0,1-2.85,5.71c-1.78,1.15-3,3.14-4.75,4.4C129.05,163.35,127.52,163.39,126.21,163.75Z"/><path class="cls-15" d="M53.62,138.72c-2.08,2.4-2.1,5.15-.07,8.17-2.23.17-2.62-1.25-2.62-3q0-4.65,0-9.3l1.74-.3.56.22Z"/><path class="cls-2" d="M39.5,25.07,38.36,18a7.36,7.36,0,0,1,2.11,1c.32.31.09,1.14.23,1.71.37,1.55.81,3.09,1.22,4.63l3.57-2.12c-.56,1.18-.82,2.94-1.75,3.43C42.19,27.46,40.48,26.8,39.5,25.07Z"/><path class="cls-6" d="M22.26,129.17l6,.38-3.63,2.59-3.65.54a4.58,4.58,0,0,1-.23-1.64,6.64,6.64,0,0,1,1-1.63A.52.52,0,0,1,22.26,129.17Z"/><path class="cls-1" d="M35.46,182.06l-1.38-.48c.51-.42,1-1.13,1.56-1.23,4.77-.86,9.56-1.62,14.34-2.4l-2.57,2.13h0l-2.44.68-1.07.08-7.3,1.1Z"/><path class="cls-15" d="M156.14,122.61a.75.75,0,0,0-.19-.54c-.23-.5-.45-1-.68-1.51l-.3-1c-.79-2.33-1.5-4.69-2.44-7-.16-.39-1.32-.36-2-.52l-.33-.34c1.57-2.49,3-1,3.61.51,1.45,3.7,2.51,7.55,3.72,11.35a2.09,2.09,0,0,1-.22.2Z"/><path class="cls-2" d="M17.4,66.31l.81-9.39.86-.81c1.52,3.59.05,6.88-1,10.22Z"/><path class="cls-4" d="M141.89,145.36l0,.61c.27,3.28-1.32,5.34-4.25,6.53l-.2-.2,4.36-7Z"/><path class="cls-7" d="M29.47,96l2.9,2L27.67,100l.39-3.58c.06-.23.11-.47.17-.7Z"/><path class="cls-11" d="M62.39,178.91c-.06-3.52-.06-3.52-4.89-3.35l0-.73c2.07-1,4.12-1.69,6,.32.06,1.07.11,2.13.16,3.19Z"/><path class="cls-15" d="M157.53,126.57c-.13-.5-.27-1-.41-1.51.06-.41.11-.82.17-1.24a2.09,2.09,0,0,0,.22-.2,6.43,6.43,0,0,1,2.31,6.71Z"/><path class="cls-13" d="M47.41,180.08,50,178l1-.27,1.5-.59.62-.38v.13l.24.88Z"/><path class="cls-1" d="M51.23,184.89l3.29-2,1.12-.56,1.92.2C55.82,184.29,54,185.75,51.23,184.89Z"/><path class="cls-1" d="M35.09,188.53l6.82-.8C39.88,190.08,37.41,188.69,35.09,188.53Z"/><path class="cls-1" d="M4.29,181.17l6.26,2.52Z"/><path class="cls-1" d="M23.29,187.46l6.09,1C27.21,189,25,189.81,23.29,187.46Z"/><path class="cls-15" d="M155.92,134.39l2.93-2,1-.27a3.49,3.49,0,0,1-4.24,3C155.71,134.9,155.81,134.64,155.92,134.39Z"/><path class="cls-1" d="M29.51,181.5l-5.49-1C26,179.91,28,179.27,29.51,181.5Z"/><path class="cls-7" d="M21.75,129.41a6.64,6.64,0,0,0-1,1.63,4.58,4.58,0,0,0,.23,1.64c0,.16,0,.31,0,.47L19,132Z"/><path class="cls-1" d="M11,76.71,7.36,81.39Z"/><path class="cls-4" d="M122,167.25l4.23-3.48C125.54,165.85,124.54,167.51,122,167.25Z"/><path class="cls-10" d="M159.84,132.15l-1,.27-1.32-5.85,2.29,3.76C159.82,130.93,159.83,131.54,159.84,132.15Z"/><path class="cls-1" d="M156.75,145.93l1.95-1.36.54,2Z"/><path class="cls-1" d="M158.66,143.6c.21-1.07.41-2.14.62-3.2C161.33,141.9,160.27,142.8,158.66,143.6Z"/><path class="cls-15" d="M47.93,98l-3-1.16Z"/><path class="cls-15" d="M43.79,96.59l-3-1Z"/><path class="cls-2" d="M57.56,182.51l-1.92-.2,2.75-1.16c-.12.39-.25.78-.37,1.17A3.71,3.71,0,0,1,57.56,182.51Z"/><path class="cls-2" d="M19.08,2.92,21,1.69,19.27,4.12Z"/><path class="cls-10" d="M155.92,134.39c-.11.25-.21.51-.32.76l-2.44,0,0-.69Z"/><path class="cls-8" d="M28.28,142.51l-1.18.9-.72-1.07Z"/><path class="cls-1" d="M46.12,187.05l1.73-.57Z"/><path class="cls-2" d="M44.24,1.81l.76-.1c.16.6.32,1.21.47,1.82Z"/><path class="cls-15" d="M148.65,133.08l1.94,1.19Z"/><path class="cls-1" d="M58,182.32c.12-.39.25-.78.37-1.17l.48-.34,1.13.48Z"/><path class="cls-15" d="M55.08,146.91l1.23,0c0,.27-.05.54-.07.81Z"/><path class="cls-4" d="M119.08,167.4l1.23,0-1.11,1.27-.2-.19c0-.38,0-.75.07-1.13Z"/><path class="cls-1" d="M52.47,177.09l-1.5.59Z"/><path class="cls-1" d="M.31,178.59l1.19,1.17Z"/><path class="cls-7" d="M19.27,109.19l.65.67-.62.71Z"/><path class="cls-8" d="M60,181.29l-1.13-.48,1.61-.83v1.19A2.11,2.11,0,0,1,60,181.29Z"/><path class="cls-1" d="M1.28,89.06.33,90.48Z"/><path class="cls-8" d="M22.21,139.3l-.73.71c0-.32,0-.63.05-.94Z"/><path class="cls-1" d="M48.84,186.14l1.45-.81Z"/><path class="cls-8" d="M29.35,141.05l-1,1.34Z"/><path class="cls-1" d="M6.81,82.61c-.4.41-.8.82-1.19,1.24C6,83.43,6.41,83,6.81,82.61Z"/><path class="cls-1" d="M3.84,85.61,2.8,87Z"/><path class="cls-2" d="M44.93,1.74l.12-.17L45,1.38l.15.35Z"/><path class="cls-13" d="M26.38,6.32C26,7.68,25.22,9,25.21,10.38c-.08,14.53.08,29.05-.13,43.58C25,58.37,24,62.77,23.35,67.17c-.06.43-.5.79-.77,1.19.35-3.11.7-6.22,1-9.33A47,47,0,0,0,24,54.31c0-15,0-30,0-45C24.08,7.88,23.39,5.57,26.38,6.32Z"/><path class="cls-13" d="M21,71.68q-3.42,5.5-6.85,11a40.26,40.26,0,0,1,1.92-3.83C17.63,76.43,19.33,74.07,21,71.68Z"/><path class="cls-13" d="M39.6,14.9,38.37,6.33c.6,0,1.42-.16,1.76.16C41.28,7.57,40.81,13.57,39.6,14.9Z"/><path class="cls-13" d="M36.58,181.94l7.3-1.1C41.67,182.71,39.19,182.74,36.58,181.94Z"/><path class="cls-13" d="M31.21,17.82l-1.84-1.18,1.9-1.05Z"/><path class="cls-13" d="M45,180.76l2.44-.68Z"/><path class="cls-2" d="M11.44,86.65c-.54.65-1.07,1.31-1.6,2C10.37,88,10.9,87.3,11.44,86.65Z"/><path class="cls-13" d="M37.77,15.55l1.82-.64Z"/><path class="cls-8" d="M53.08,176.84l1.92-.4-1.68,1.28Z"/><path class="cls-2" d="M9.56,89,8.07,90.43Z"/><path class="cls-2" d="M12.61,84.84l-1.17,1.81Z"/><path class="cls-13" d="M12,177.74l1.51.72Z"/><path class="cls-2" d="M13.87,83.1l-1,1.32Z"/><path class="cls-13" d="M22.14,69.26l-.76,1.49Z"/><path class="cls-16" d="M136.13,96.77c2.16,1.54,4,3,4.74,6s2.63,5.86,3.75,8.88c.46,1.23.15,2.74.27,4.12.14,1.63.36,3.27.55,4.9l.06.81a19.61,19.61,0,0,1-1.8,2.71c-2,2.09-4,4.08-6,6.11l-1.83-1.75-.34-2.7,6.22-5.21c.42-.77.85-1.53,1.28-2.3-.31-.86-.61-1.72-.92-2.59l-.76-1.2-1.29-1-2.39,0-1.17.68-.61.54-5.36,3.07c-.09-1.09-.19-2.17-.28-3.25,0-1.35.05-2.69.08-4Q133.21,103.66,136.13,96.77Z"/><path class="cls-16" d="M66.34,90.11c.23-.43.35-1,.71-1.26,3.22-2.15,6.37-4.44,9.76-6.28a75.63,75.63,0,0,1,9-3.79,8.58,8.58,0,0,1,2.9-.44c6.86,0,13.72-.09,20.58,0,1.34,0,2.67.89,4,1.38a11.15,11.15,0,0,0,2.18.82c3.69.52,6.63,2.35,9.63,4.51,3.51,2.53,7.2,4.79,9.9,8.24a8.21,8.21,0,0,1,.86,2.35l-2.43,0c-.51-1.22-.69-2.9-1.6-3.58a131.46,131.46,0,0,0-11.81-7.92c-2.22-1.3-5.32-1.36-7.17-3-2.15-1.86-4.27-1.71-6.59-1.72-5.58,0-11.16-.06-16.74,0a11.77,11.77,0,0,0-3.33.86c-1.34.45-2.65,1-4,1.49a13.11,13.11,0,0,0-2.46.8c-2.61,1.62-5.1,3.43-7.74,5-1.75,1-3.68,1.76-5.53,2.63Z"/><path class="cls-17" d="M39.45,123.79c0-.5.1-1,.14-1.5l0-.22c.42-.17,1.1-.24,1.21-.52,1.22-3.23,2.35-6.5,3.51-9.76,1.17-2.89,2.31-5.79,3.55-8.65.74-1.72,1.65-3.36,2.49-5L52,96.75l1.35-1,.85-.51L54,98.11c-1.12,1.24-1.78,2.54-.57,4.1-2.17.37-3,2-3.64,3.84-2,6.23-4,12.45-6,18.67l-.59.29-.07-.24-.2.17.22.12-1.49,2.47-.91.67-1.21-.26Z"/><path class="cls-18" d="M52.82,130.89c-.09-.24-.17-.47-.25-.71a1.38,1.38,0,0,1,.32-.44,9.55,9.55,0,0,0,6.56-7,16.71,16.71,0,0,0-4.22-16.48l-.66-3,2.18.63,1.2.45q3.22,5,6.46,9.91l1.44,2.27.63,5.44-.69,1.09-2.2.8c1-5.63-.8-11.85-4.29-14.31.38,1,.66,1.7.91,2.41C63.26,120.58,60.25,128.27,52.82,130.89Z"/><path class="cls-7" d="M54.57,103.26l.66,3-.61.1-2.51-1.71a29.79,29.79,0,0,0-1.81,3.2c-.48,1.14-.65,2.4-1,3.58-1.1,3.41-2.24,6.8-3.37,10.22,3,1.54,4.67-.58,6.67-1.65v3.89l-3.38.67-1.54.72-3.86-.53c2-6.22,4-12.44,6-18.67.6-1.89,1.47-3.47,3.64-3.84Z"/><path class="cls-18" d="M133.48,95.67l2.42,0c.07.36.15.72.23,1.08q-2.91,6.9-5.83,13.79l-1-.57c.34-1.84.67-3.69,1-5.54l-.47-.18L128.06,107l-.75,0Z"/><path class="cls-12" d="M155,119.58l.3,1c-.1.47-.19.94-.29,1.4l-1.69-.06c-1.55-1.89-3.13-2.77-5-.36-.28.35-1.08.28-1.64.4v0l2.22-6.15a1.92,1.92,0,0,1,.25-.38l2.62-1.6c.6,1.38,1,2.56,1.62,3.65A15.29,15.29,0,0,0,155,119.58Z"/><path class="cls-16" d="M58,104.34l-1.2-.45c.08-.69-.09-1.63.29-2,3.45-3.64,4.41-9.26,9.3-11.74l.18.19c-2.25,3.41-4.55,6.8-6.74,10.25A33.92,33.92,0,0,0,58,104.34Z"/><path class="cls-10" d="M155,119.58a15.29,15.29,0,0,1-1.64-2.08c-.6-1.09-1-2.27-1.62-3.65l-2.62,1.6c.48-1.12.95-2.23,1.42-3.35.7.16,1.86.13,2,.52C153.47,114.89,154.18,117.25,155,119.58Z"/><path class="cls-2" d="M54,98.11l.24-2.91c1.56-1.62,3.42-2.1,6.23-1.59Z"/><path class="cls-10" d="M148.84,115.83,146.62,122l-1.12-.48-.06-.82Z"/><path class="cls-2" d="M53.36,95.71l-1.35,1Z"/><path class="cls-19" d="M58,104.34a33.92,33.92,0,0,1,1.83-3.79C62,97.1,64.27,93.71,66.52,90.3c1.85-.87,3.78-1.6,5.53-2.63,2.64-1.57,5.13-3.38,7.74-5a13.11,13.11,0,0,1,2.46-.8c1.33-.48,2.64-1,4-1.49a11.77,11.77,0,0,1,3.33-.86c5.58-.09,11.16,0,16.74,0,2.32,0,4.44-.14,6.59,1.72,1.85,1.6,5,1.66,7.17,3a131.46,131.46,0,0,1,11.81,7.92c.91.68,1.09,2.36,1.6,3.58q-3.08,5.65-6.16,11.31c-.25.14-.66.22-.74.42-1.76,4.77-3.48,9.56-5.21,14.34l-7.57,8.19.51-6.19c.41-1,.91-2,1.23-3,.7-2.33,1.23-4.67-1-6.55s-4.11-.62-5.88.75c-1.61,1.23-3.09,2.63-5,4.25a19.14,19.14,0,0,0,0-2.34c-.14-1-.39-2.06-.6-3.09a17.39,17.39,0,0,0-3.5,1.09,3.47,3.47,0,0,0-1.23,2c-1.59,4.86-3.18,9.72-4.61,14.62-.52,1.8.49,3.14,2.34,2.79a5.69,5.69,0,0,0,3.2-2.23c1.58-2.26,2.66-4.88,4.27-7.12,1.74-2.42,3.84-4.58,5.79-6.85l.93.57c-1,3.34-1.83,6.75-3.09,10a3.77,3.77,0,0,0,1.53,4.91,5.34,5.34,0,0,0,4.58.21c2-1.12,3.58-3,5.23-4.7.78-.79,1.31-1.88,1.84.09-.39,1.34-.83,2.68-1.12,4,0,.17.71.51,1.09.77h2.39c.5,0,1.32.1,1.45-.14,1.2-2.29,2.29-4.65,3.42-7a2.28,2.28,0,0,1,.38-.2l3.77,3.12a.32.32,0,0,1,.16.34c-.34,2,.28,3.15,2.47,3.08a.32.32,0,0,1,.32.18l2.17.81.22,0,.21,0,2.14-.87,2.11-1.37,1.25-1.18.22-.15h.26c1.83,1.91,1.72,5.74-.25,8.26-2.78,0-3.82,2.12-4.62,4.2-.23.58.71,1.62,1.12,2.46-.36,1.17-.35,2.77-1.14,3.45a10.78,10.78,0,0,0-3.72,7.1h0c-.4.4-.79.81-1.18,1.21h0a3,3,0,0,0-1.15.17q-6.35,4.31-12.63,8.7c-.33.24-.4.84-.59,1.28h0c-1.46,0-3-.26-4.36.17-1,.32-1.79,1.52-2.67,2.34l0,0c-7,0-14.09-.34-21.11,0-4.37.22-8-2-11.54-3.42A40.53,40.53,0,0,1,64.22,156a6.76,6.76,0,0,0-2-1l0,0c.22-2.47.24-4.83-3-5.32L58,148.39l-.09-1.51a1.75,1.75,0,0,1,0-.56c2-.25,4-.5,4.28-3.12s-1.42-3.63-3.38-4.21c-1.16-.34-2.52,0-3.79,0l-1.41-.28c-.14-1.41-.28-2.82-.41-4.23a11.41,11.41,0,0,0,3.24-1.31c2-1.66,3.73-3.57,5.58-5.39l1.56-3.94,2.2-.8c.59-.4,1.18-.8,1.76-1.21.24-.67.48-1.34.71-2l1.73-.19,1.08,1.84a1.5,1.5,0,0,1-.23.33l-.42,1.06-.89,1.35-.34,1c-.12.1-.24.2-.35.31-2.41,1.33-2.43,3.7-2,5.81s2.15,3.28,4.65,3.22c3.07-.07,4.83-2,6.68-3.93.68-.71,1.34-1.43,2.27-2.43,1,6.21,3.49,7.85,7.09,5.18l1.69-1.07c.91-.77,1.84-1.52,2.68-2.35a3.15,3.15,0,0,0-.71-1.05,28,28,0,0,0-3,1.48c-.13.07-.15.35-.22.53l-2,.41-.2-.2-.43-2,.84-3,1-3,.49-2.29c.58-1,1.15-2,1.72-3,.82-1.41,1.82-3.18-.21-4s-3.21.42-4.43,2.33c-2.8,4.4-6.06,8.5-9.25,12.64A9.93,9.93,0,0,1,73,130.58l-.85-.71q1.63-4,3.28-7.93l1-.39-.55-.75-.07-1.12a.41.41,0,0,0,.22-.3v0L77.81,116l1-.74-1.28-.44L73,116.06l-3.55-.42.11-1.44-.29-1.07-1.84,1-1.43.74-1.6-.58Zm46.22,41.54h0l1.81.73-.45-2-.91-2.18-1.12-1.26-1.1-1.32c-2.05-2-3.76-1.19-4.6,2l-.25,1-2.11,2.72c.37.27.91.86,1.09.77a19.1,19.1,0,0,0,2.25-1.59l4.16-.07Zm7.12-6.06-1.61,5c1.42,2.06,3.37,2.78,5.49,1.88,1-.4,2.22-2,2-2.75-.49-1.78,1.13-4.72-2.31-5.18ZM91,144.76c2.26-1.76.75-3-.55-4.36-2-2.29-6.5-2.45-9.33-.35-1.59,1.18-2.17,2.58-.94,4.31C82.65,147.8,88,148,91,144.76Zm41.83-3.48c-2.5-3.7-9.44-3.55-11.09.12a4.3,4.3,0,0,0,.55,3.62c1.52,2,6,2.77,8.27,1.58.82-.42,1.33-1.46,2-2.22-1-.07-2-.45-2.85-.14-2.13.81-3.77.52-5.24-1.32C126.69,139.1,130.09,142.5,132.87,141.28Zm-66.53,5.24c.71-.2,1-.2,1.08-.32,2.29-2.07,4.53-2.13,6.83,0a10,10,0,0,0,1.59-1.39c-1.48-2-2.7-4.76-4.75-5.78-2.31-1.15-2.76,2.13-4,3.53a5.3,5.3,0,0,0-1.24,2C65.75,145.17,66.17,145.87,66.34,146.52ZM93.9,107.44c-2.05-1.27-3.23-2.5-4.51-2.61-.75-.07-1.66,1.63-2.5,2.54,1.11.86,2.13,2.11,3.38,2.43C91,110,92.09,108.68,93.9,107.44Z"/><path class="cls-20" d="M141.51,131.89l-2.11,1.37-2.14.87-.21,0-.22,0c-.73-.26-1.45-.54-2.17-.81a.32.32,0,0,0-.32-.18l-2.47-3.08a.32.32,0,0,0-.16-.34l.09-5.26,2.15-.67c.1,1.8-.3,3.8,1.89,4.77l1.83,1.75c.37,2,1.42,1.16,2.26.45s1.74-1.72,2.67-2.65l.87,1.51c-.08.32-.15.64-.23.95H143l-.22.15Z"/><path class="cls-21" d="M139.49,145.49c-.41-.84-1.35-1.88-1.12-2.46.8-2.08,1.84-4.19,4.62-4.2a11.2,11.2,0,0,1,.7,2.7A9,9,0,0,1,143,144l-1.23.59Z"/><path class="cls-22" d="M143.47,129.62l-.87-1.51c-.93.93-1.74,1.87-2.67,2.65s-1.89,1.56-2.26-.45c2-2,4.07-4,6-6.11a19.61,19.61,0,0,0,1.8-2.71l1.12.49v0c-.74,1.39-1.49,2.78-2.23,4.18l-.19,1.18.95.22Z"/><path class="cls-2" d="M145.14,127.52c-.32-.07-.63-.15-.95-.21.06-.4.13-.8.19-1.19.74-1.4,1.49-2.79,2.23-4.18.56-.12,1.36,0,1.64-.4,1.91-2.41,3.49-1.53,5,.36l-.27.88c-1.83-2-3.23-1.6-4.59.63A37.73,37.73,0,0,1,145.14,127.52Z"/><path class="cls-10" d="M149.12,131.19c-.09.47-.18.95-.28,1.42l-1.26-1.16Z"/><path class="cls-2" d="M153.54,124.25l1,1.71Z"/><path class="cls-4" d="M141.74,144.6,143,144l-1.08,1.35-.06-.06Z"/><path class="cls-20" d="M63.59,123.85,62,127.79l-9.35,5.66L48.11,133l4.71-2.1c7.43-2.62,10.44-10.31,7.39-18.94-.25-.71-.53-1.4-.91-2.41C62.79,112,64.55,118.22,63.59,123.85Z"/><path class="cls-18" d="M52.68,133.45,62,127.79c-1.85,1.82-3.61,3.73-5.58,5.39a11.41,11.41,0,0,1-3.24,1.31l-.56-.22Z"/><path class="cls-17" d="M35.73,128.72l3.83-.79-.09,2.4-.52.49-2.23.23-1.43-.13Z"/><path class="cls-6" d="M35.29,130.92l1.43.13c-1.17.69-2.14,3-3.73.49l.85-.43Z"/><path class="cls-23" d="M50.26,130.74l1.8-.69Z"/><path class="cls-23" d="M41.66,127.53c.09.75.18,1.51.26,2.26l-1.17-1.59Z"/><path class="cls-23" d="M43.72,130.44l1.29.3Z"/><path class="cls-6" d="M39,130.82l.52-.49Z"/><path class="cls-14" d="M62.22,155a6.76,6.76,0,0,1,2,1,40.53,40.53,0,0,0,15.13,10.54c3.58,1.45,7.17,3.64,11.54,3.42,7-.35,14.07,0,21.11,0a7.5,7.5,0,0,1-2.45,1c-7.07.08-14.15.05-21.22,0a5,5,0,0,1-1.77-.17c-3.1-1.28-6.16-2.67-9.27-3.92a24.74,24.74,0,0,0-3.44-.87c-1.25-1.16-2.52-2.31-3.75-3.5Q66.14,158.75,62.22,155Z"/><path class="cls-14" d="M112,169.91c.88-.82,1.64-2,2.67-2.34,1.34-.43,2.9-.14,4.36-.17,0,.38,0,.75-.07,1.13Z"/><path class="cls-10" d="M157.29,123.82c-.06.42-.11.83-.17,1.24-.32-.81-.65-1.63-1-2.45C156.53,123,156.91,123.42,157.29,123.82Z"/><path class="cls-10" d="M155,122c.1-.46.19-.93.29-1.4.23.5.45,1,.68,1.51Z"/><path class="cls-1" d="M39.64,122.07l4.14-10.29h.58c-1.16,3.26-2.29,6.53-3.51,9.76C40.74,121.83,40.06,121.9,39.64,122.07Z"/><path class="cls-6" d="M25.32,114.7l2,2.19a8.76,8.76,0,0,1-1.28.89c-1.6-1.64-3.13-3.36-4.67-5l1.51-.34Z"/><path class="cls-1" d="M33,119.91l5.4,2Z"/><path class="cls-1" d="M29.37,117.79c.82.57,1.64,1.14,2.45,1.72C31,118.93,30.19,118.36,29.37,117.79Z"/><path class="cls-1" d="M27.89,116.9l1.48.89L27.43,117A.9.9,0,0,1,27.89,116.9Z"/><path class="cls-6" d="M27.89,116.9a.9.9,0,0,0-.46.12l-.16.19Z"/><path class="cls-14" d="M59.17,149.61c3.27.49,3.25,2.85,3,5.32Z"/><path class="cls-14" d="M57.89,146.88l.09,1.51L56.85,147Z"/><path class="cls-9" d="M154.39,139.31c-.18.62-.37,1.24-.56,1.85l-.36,3.51h-1.19a16.54,16.54,0,0,1-.08-4.09C152.31,140,153.63,139.73,154.39,139.31Z"/><path class="cls-21" d="M55,139c1.27,0,2.63-.35,3.79,0,2,.58,3.62,1.72,3.38,4.21s-2.27,2.87-4.28,3.12l-.57-1.42,1.9-2.38c-1-.67-2-1.38-3-2-.3-.18-.77-.07-1.16-.1Z"/><path class="cls-24" d="M55.08,140.43c.39,0,.86-.08,1.16.1,1,.61,2,1.32,3,2l-1.9,2.38C54.1,144.67,55.19,142.25,55.08,140.43Z"/><path class="cls-14" d="M141.74,144.6l.09.7-4.36,7L134.63,156a10.78,10.78,0,0,1,3.72-7.1c.79-.68.78-2.28,1.14-3.45Z"/><path class="cls-14" d="M133.45,157.25c.39-.4.78-.81,1.18-1.21C134.23,156.44,133.84,156.85,133.45,157.25Z"/><path class="cls-7" d="M33,95.64h0Z"/><path class="cls-22" d="M135.84,128.56c-2.19-1-1.79-3-1.89-4.77a21.37,21.37,0,0,0,2.66-2.9,9.3,9.3,0,0,0,.75-2.81c-1,.11-2.32-.14-2.94.4a44.53,44.53,0,0,0-4.06,4.59c-.81,1.18-1.62,2.35-2.42,3.53a2.28,2.28,0,0,0-.38.2l-1.44,1L129.35,110l1,.57c0,1.35-.06,2.69-.08,4-.37,1-.74,2-1.1,3.05L128,120.38l.83.44,1.27-1.85.36-1.17v0l5.36-3.07c.07.47.09,1.34.23,1.36,3,.42,3.22,2.67,3,5.51l2.61-2.22.24.19-.18,1-6.22,5.21Z"/><path class="cls-20" d="M141.66,119.43l-2.61,2.22c.26-2.84.07-5.09-3-5.51-.14,0-.16-.89-.23-1.36l.61-.54h1.17l2.56.17,1.12.16c.25.4.51.8.76,1.21Z"/><path class="cls-25" d="M129.12,117.65c.36-1,.73-2,1.1-3.05.09,1.08.19,2.16.28,3.25v0h-1.2Z"/><path class="cls-22" d="M141.66,119.43l.42-3.66.92,2.58-1.1,1.27Z"/><path class="cls-22" d="M140.2,114.4l-2.56-.17v-.67l2.39,0C140.09,113.86,140.14,114.13,140.2,114.4Z"/><path class="cls-25" d="M140.2,114.4c-.06-.27-.11-.54-.17-.81l1.29,1Z"/><path class="cls-25" d="M141.9,119.62l1.1-1.27c-.43.77-.86,1.53-1.28,2.3Z"/><path class="cls-25" d="M137.64,113.56v.67h-1.17Z"/><path class="cls-7" d="M43.2,125l-.06,0-.21-.12.2-.17Z"/><path class="cls-24" d="M52.89,129.74c-.11-2-.21-3.91-.32-5.88,0-1.3,0-2.59,0-3.89-.56-4.73,1.23-9.12,2.06-13.64l.61-.1a16.71,16.71,0,0,1,4.22,16.48A9.55,9.55,0,0,1,52.89,129.74Z"/><path class="cls-22" d="M69.57,114.2c0,.48-.07,1-.1,1.44a3.31,3.31,0,0,1-1.21,4.19c-.23.67-.47,1.34-.71,2l-1.07.12-.63-5.44c.05-.56.1-1.12.16-1.69l1.43-.74Z"/><path class="cls-16" d="M66,114.83c-.06.57-.11,1.13-.16,1.69l-1.44-2.27Z"/><path class="cls-25" d="M66.48,122l1.07-.12c-.58.41-1.17.81-1.76,1.21Z"/><path class="cls-26" d="M129.35,110q-1.6,8.92-3.23,17.85l-3.39,5-2.11-.61.23-1.37c1.33-2.84,2.44-5.71,1.22-8.91,3.85-4.23,3.76-10,6-14.94l1.83-2.73.47.18C130,106.3,129.69,108.15,129.35,110Z"/><path class="cls-27" d="M128.06,107c-2.23,4.89-2.14,10.71-6,14.94l-.71-.2c1.73-4.78,3.45-9.57,5.21-14.34.08-.2.49-.28.74-.42Z"/><path class="cls-22" d="M121.36,121.74l.71.2c1.22,3.2.11,6.07-1.22,8.91l-.52-1.72c-.53-2-1.06-.88-1.84-.09-1.65,1.68-3.23,3.58-5.23,4.7a5.34,5.34,0,0,1-4.58-.21,3.77,3.77,0,0,1-1.53-4.91c1.26-3.24,2.08-6.65,3.09-10l-.93-.57c-2,2.27-4,4.43-5.79,6.85-1.61,2.24-2.69,4.86-4.27,7.12a5.69,5.69,0,0,1-3.2,2.23c-1.85.35-2.86-1-2.34-2.79,1.43-4.9,3-9.76,4.61-14.62a3.47,3.47,0,0,1,1.23-2,17.39,17.39,0,0,1,3.5-1.09c.21,1,.46,2.06.6,3.09a19.14,19.14,0,0,1,0,2.34c1.86-1.62,3.34-3,5-4.25,1.77-1.37,3.66-2.59,5.88-.75s1.73,4.22,1,6.55c-.32,1-.82,2-1.23,3l-1.16,0a42.25,42.25,0,0,0,1.59-5.41,3.69,3.69,0,0,0-.84-2.9c-.64-.6-2-.49-2.24-.55-.34,2.6-.42,4.63-.89,6.56-.66,2.68-1.78,5.26-2.37,8a4,4,0,0,0,1,3.12c.54.6,1.87.47,3.25.74-.61-2.12-3.36-3.15-.77-4.85.46,2.5.59,2.6,2,1.49ZM94.77,133.13c3.93-.22,4.51-3.15,5.1-5.07,1.29-4.16,1.75-8.58,2.54-12.89l-1-.24C96.74,120,97.38,126.94,94.77,133.13Z"/><path class="cls-18" d="M75.74,119.68c0,.38.05.75.07,1.12-.14.38-.28.76-.41,1.14q-1.65,4-3.28,7.93l.85.71a9.93,9.93,0,0,0,2.57-1.74c3.19-4.14,6.45-8.24,9.25-12.64,1.22-1.91,2.54-3.11,4.43-2.33s1,2.61.21,4c-.57,1-1.14,2-1.72,3q.42-2.9.82-5.79a3.9,3.9,0,0,0-2.4,1.29c-3.55,3.69-3.19,8.64-4.08,13.15-.56,2.84.68,3.77,4.11,3.77l1.38.07c-3.6,2.67-6.12,1-7.09-5.18-.93,1-1.59,1.72-2.27,2.43-1.85,1.93-3.61,3.86-6.68,3.93-2.5.06-4.2-1-4.65-3.22s-.42-4.48,2-5.81a29.4,29.4,0,0,0-.45,4.65A4.29,4.29,0,0,0,69.6,133c.5.43,1.73,0,2.63,0-2.13-2.34-1.78-4.33-.76-6.49.87-1.87,1.55-3.83,2.32-5.75a1,1,0,0,0,.07-.27,4.64,4.64,0,0,0-.16-.53L75,119.6Z"/><path class="cls-20" d="M86.16,133.31c-3.43,0-4.67-.93-4.11-3.77.89-4.51.53-9.46,4.08-13.15a3.9,3.9,0,0,1,2.4-1.29q-.41,2.9-.82,5.79c-.16.76-.33,1.53-.49,2.29l-1,3-.84,3c.14.65.29,1.31.43,2l.2.2Z"/><path class="cls-27" d="M132.87,141.28c-2.78,1.22-6.18-2.18-8.37,1.64,1.47,1.84,3.11,2.13,5.24,1.32.81-.31,1.89.07,2.85.14-.66.76-1.17,1.8-2,2.22-2.31,1.19-6.75.43-8.27-1.58a4.3,4.3,0,0,1-.55-3.62C123.43,137.73,130.37,137.58,132.87,141.28Z"/><path class="cls-27" d="M91,144.76c-3.07,3.21-8.39,3-10.82-.4-1.23-1.73-.65-3.13.94-4.31,2.83-2.1,7.28-1.94,9.33.35-.64.23-1.44.83-1.88.63-3-1.34-5.16.11-8.2,1.83l6.41,2.61.29-.72-1.65-2C87.86,143.4,90.39,141.24,91,144.76Z"/><path class="cls-21" d="M66.34,146.52c-.17-.65-.59-1.35-.45-1.93a5.3,5.3,0,0,1,1.24-2c1.2-1.4,1.65-4.68,4-3.53,2,1,3.27,3.74,4.75,5.78a10,10,0,0,1-1.59,1.39c-2.3-2.16-4.54-2.1-6.83,0C67.29,146.32,67.05,146.32,66.34,146.52Z"/><path class="cls-27" d="M114.89,138.8c3.44.46,1.82,3.4,2.31,5.18.19.72-1.08,2.35-2,2.75-2.12.9-4.07.18-5.49-1.88l1.61-5c.3,2.8,1.72,3.75,4.64,3l-2.44-1.34Z"/><path class="cls-25" d="M91,144.76c-.65-3.52-3.18-1.36-5.58-2l1.65,2-.29.72-6.41-2.61c3-1.72,5.25-3.17,8.2-1.83.44.2,1.24-.4,1.88-.63C91.79,141.71,93.3,143,91,144.76Z"/><path class="cls-12" d="M73.79,120.71c-.77,1.92-1.45,3.88-2.32,5.75-1,2.16-1.37,4.15.76,6.49-.9,0-2.13.47-2.63,0a4.29,4.29,0,0,1-1.21-2.81,29.4,29.4,0,0,1,.45-4.65c.11-.11.23-.21.35-.31.12-.33.23-.67.34-1,.3-.45.6-.9.89-1.35l.42-1.06a1.5,1.5,0,0,0,.23-.33c.17-.43.33-.86.49-1.28Z"/><path class="cls-18" d="M102.4,139.84l1.1,1.32,1.12,1.26c.31.73.61,1.45.91,2.18l-1.36,1.28h0l-1.23-1.16-4.16.07-1.23-1.9q.14-.51.24-1Z"/><path class="cls-22" d="M93.9,107.44c-1.81,1.24-2.91,2.55-3.63,2.36-1.25-.32-2.27-1.57-3.38-2.43.84-.91,1.75-2.61,2.5-2.54C90.67,104.94,91.85,106.17,93.9,107.44Z"/><path class="cls-20" d="M73.79,120.71l-2.23-.51L70,119.64l-1.73.19a3.31,3.31,0,0,0,1.21-4.19l3.54.42c0,.23,0,.46,0,.69l.68,3.16a4.64,4.64,0,0,1,.16.53A1,1,0,0,1,73.79,120.71Z"/><path class="cls-27" d="M122.73,132.83l3.39-5,1.44-1c-1.13,2.35-2.22,4.71-3.42,7-.13.24-1,.11-1.45.14Z"/><path class="cls-21" d="M114.89,138.8l-1.4,2.66,2.44,1.34c-2.92.77-4.34-.18-4.64-3Z"/><path class="cls-25" d="M127.94,126.6c.8-1.18,1.61-2.35,2.42-3.53l1.44,1.39-.09,5.26Z"/><path class="cls-27" d="M113.14,123.77l1.16,0-.51,6.19c-1.36,1.11-1.49,1-2-1.49C112.28,126.89,112.71,125.33,113.14,123.77Z"/><path class="cls-25" d="M97.55,142.89l1.23,1.9a19.1,19.1,0,0,1-2.25,1.59c-.18.09-.72-.5-1.09-.77Z"/><path class="cls-18" d="M88,130.92c.07-.18.09-.46.22-.53a28,28,0,0,1,3-1.48,3.15,3.15,0,0,1,.71,1.05c-.84.83-1.77,1.58-2.68,2.34l.82-1.81Z"/><path class="cls-22" d="M88,130.92l2.08-.43-.82,1.81-1.69,1.08-1.38-.07-.15-2Z"/><path class="cls-27" d="M120.33,129.13l.52,1.72c-.08.46-.15.91-.23,1.37s-.21,1.14-.32,1.72c-.38-.26-1.12-.6-1.09-.77C119.5,131.81,119.94,130.47,120.33,129.13Z"/><path class="cls-22" d="M75.74,119.68,75,119.6c-.06-1-.11-2.1-.17-3.15l2.48-1.08.49.6L76,119.4v0A.41.41,0,0,1,75.74,119.68Z"/><path class="cls-25" d="M102.4,139.84l-4.61,2C98.64,138.65,100.35,137.89,102.4,139.84Z"/><path class="cls-18" d="M77.32,115.37l-2.48,1.08-1.82.3c0-.23,0-.46,0-.69l4.48-1.27C77.43,115,77.38,115.18,77.32,115.37Z"/><path class="cls-25" d="M131.87,130.06l2.47,3.08C132.15,133.21,131.53,132,131.87,130.06Z"/><path class="cls-25" d="M104.17,145.88l1.36-1.28.45,2Z"/><path class="cls-22" d="M120.3,133.94c.11-.58.22-1.15.32-1.72l2.11.61,0,1.11Z"/><path class="cls-18" d="M86.22,126.16l1-3Z"/><path class="cls-18" d="M69.57,114.2l-2.13-.11,1.84-1Z"/><path class="cls-18" d="M70,119.64l1.57.56c-.16.42-.32.85-.49,1.28Z"/><path class="cls-16" d="M77.32,115.37c.06-.19.11-.39.17-.58l1.28.44-1,.74Z"/><path class="cls-25" d="M134.66,133.32c.72.27,1.44.55,2.17.81Z"/><path class="cls-18" d="M85.81,131.13c-.14-.65-.29-1.31-.43-2C85.52,129.82,85.67,130.48,85.81,131.13Z"/><path class="cls-25" d="M137.26,134.13l2.14-.87Z"/><path class="cls-25" d="M102.94,144.72l1.23,1.16Z"/><path class="cls-25" d="M141.51,131.89l1.25-1.18Z"/><path class="cls-16" d="M75.4,121.94c.13-.38.27-.76.41-1.14l.55.75Z"/><path class="cls-25" d="M104.62,142.42l-1.12-1.26Z"/><path class="cls-18" d="M69.53,124.22c-.11.33-.22.67-.34,1Z"/><path class="cls-18" d="M70.84,121.81l-.42,1.06Z"/><path class="cls-16" d="M76,119.38v0Z"/><path class="cls-19" d="M131.8,124.46l-1.44-1.39a44.53,44.53,0,0,1,4.06-4.59c.62-.54,1.94-.29,2.94-.4a9.3,9.3,0,0,1-.75,2.81,21.37,21.37,0,0,1-2.66,2.9Z"/><path class="cls-20" d="M144.38,126.12c-.06.39-.13.79-.19,1.19C144.25,126.91,144.32,126.51,144.38,126.12Z"/><path class="cls-25" d="M130.14,119l-1.27,1.85-.83-.44,1.08-2.73.18.15Z"/><path class="cls-16" d="M130.14,119l-.84-1.17h1.2Z"/><path class="cls-26" d="M94.77,133.13c2.61-6.19,2-13.12,6.6-18.2l1,.24c-.79,4.31-1.25,8.73-2.54,12.89C99.28,130,98.7,132.91,94.77,133.13Z"/><path class="cls-26" d="M113.14,123.77c-.43,1.56-.86,3.12-1.3,4.67-2.59,1.7.16,2.73.77,4.85-1.38-.27-2.71-.14-3.25-.74a4,4,0,0,1-1-3.12c.59-2.7,1.71-5.28,2.37-8,.47-1.93.55-4,.89-6.56.29.06,1.6,0,2.24.55a3.69,3.69,0,0,1,.84,2.9A42.25,42.25,0,0,1,113.14,123.77Z"/><path class="cls-26" d="M73,116.75l1.82-.3c.06,1,.11,2.1.17,3.15l-1.31.31C73.47,118.85,73.25,117.8,73,116.75Z"/></g></g></svg>